<svg id="Flat" height="512" viewBox="0 0 128 128" width="512" xmlns="http://www.w3.org/2000/svg"><path d="m35.46 64 62.93-37.94-3.15-6.56-68.88 40.8v7.4l71.84 40.8 3.15-6.56z" fill="#c1cdd3"/><circle cx="29.44" cy="64" fill="#ef5361" r="24" transform="matrix(.383 -.924 .924 .383 -40.95 66.71)"/><path d="m53.44 64a24 24 0 0 1 -44.66 12.2 24 24 0 0 0 38.92-18.79 23.76 23.76 0 0 0 -3.33-12.18 23.86 23.86 0 0 1 9.07 18.77z" fill="#da2a47"/><circle cx="99.78" cy="105.22" fill="#faba59" r="22.78" transform="matrix(.383 -.924 .924 .383 -35.62 157.14)"/><path d="m122.56 105.22a22.78 22.78 0 0 1 -42.39 11.58 22.77 22.77 0 0 0 33.83-29.39 22.68 22.68 0 0 1 8.56 17.81z" fill="#f2a846"/><circle cx="98.3" cy="22.78" fill="#78c161" r="22.78" transform="matrix(.383 -.924 .924 .383 39.64 104.88)"/><path d="m121.08 22.78a22.78 22.78 0 0 1 -42.39 11.58 22.77 22.77 0 0 0 33.78-29.36 22.65 22.65 0 0 1 8.61 17.78z" fill="#65b54e"/></svg>